# File created by Blade
# Date/Time:  Tue Jan 27 19:00:36 2015
# Frame Rate: 120.000 fps
#------------------------------------------------------
:FULLY-SPECIFIED
:DEGREES
3331
root -2.164627 31.736328 -4.547397 27.736058 -63.980859 -23.711270
Spine 5.364764 8.611686 -3.758034
Head 18.277205 35.370908 15.714056
LeftShoulder -21.731420 21.236935 11.281963
LeftArm -9.265981 -53.431564 -70.595628
LeftForeArm -8.447199 -0.000000 110.237264
LeftHand -15.344686 -0.000000 36.686180
LeftHandThumb1 -26.253704 0.000000 33.147579
RightShoulder -8.243858 2.436583 -6.941348
RightArm 10.508496 -27.517631 82.056943
RightForeArm -30.557082 -0.000000 32.305970
RightHand -15.167968 -0.000000 6.643515
RightHandThumb1 -24.326973 -0.000000 -32.862282
LeftUpLeg -14.715336 22.472426 -6.268630
LeftLeg 16.348926 -0.000000 -0.000000
LeftFoot -35.288132 40.092910 -22.191878
LeftToeBase 12.176430 -0.000000 -0.000000
RightUpLeg -43.234334 -60.813592 13.373830
RightLeg 90.396676 -0.000000 -0.000000
RightFoot -18.423998 -25.135019 15.461298
RightToeBase -2.836665 -0.000000 0.000000
3332
root -2.168115 31.730005 -4.548893 27.616825 -63.998167 -23.620009
Spine 5.396353 8.566624 -3.793992
Head 18.287737 35.477244 15.633041
LeftShoulder -21.749041 21.232193 11.263523
LeftArm -9.169294 -53.261832 -70.585463
LeftForeArm -8.396486 -0.000000 110.321265
LeftHand -15.398857 -0.000000 36.794815
LeftHandThumb1 -26.253704 0.000000 33.147579
RightShoulder -8.214999 2.474426 -6.969215
RightArm 10.551519 -27.601464 82.024929
RightForeArm -30.567666 -0.000000 32.236206
RightHand -15.015780 0.000000 6.700270
RightHandThumb1 -24.326973 -0.000000 -32.862282
LeftUpLeg -14.699194 22.517039 -6.302386
LeftLeg 16.395497 -0.000000 -0.000000
LeftFoot -35.287244 40.098821 -22.136485
LeftToeBase 12.115781 -0.000000 -0.000000
RightUpLeg -43.162471 -60.762576 13.287024
RightLeg 90.385661 -0.000000 -0.000000
RightFoot -18.380033 -25.188680 15.494669
RightToeBase -2.899614 -0.000000 0.000000
3333
root -2.173216 31.723945 -4.549073 27.474963 -63.994129 -23.508848
Spine 5.426129 8.506086 -3.821898
Head 18.329368 35.591048 15.548278
LeftShoulder -21.749918 21.215488 11.247507
LeftArm -9.072320 -53.150726 -70.617714
LeftForeArm -8.382041 -0.000000 110.401072
LeftHand -15.335747 -0.000000 36.729359
LeftHandThumb1 -26.253704 0.000000 33.147579
RightShoulder -8.179818 2.510100 -6.995514
RightArm 10.590403 -27.720770 81.974993
RightForeArm -30.515299 0.000000 32.184243
RightHand -15.102456 -0.000000 6.723330
RightHandThumb1 -24.326973 -0.000000 -32.862282
LeftUpLeg -14.669724 22.550009 -6.332549
LeftLeg 16.435313 -0.000000 -0.000000
LeftFoot -35.292100 40.082826 -22.066026
LeftToeBase 12.201994 -0.000000 -0.000000
RightUpLeg -43.073773 -60.747087 13.177016
RightLeg 90.381943 -0.000000 -0.000000
RightFoot -18.305223 -25.279841 15.437261
RightToeBase -2.844782 -0.000000 0.000000
3334
root -2.167206 31.714198 -4.545540 27.265036 -64.122755 -23.275387
Spine 5.430157 8.545439 -3.969933
Head 18.322623 35.711359 15.454936
LeftShoulder -21.735828 21.180415 11.258200
LeftArm -9.012925 -53.039805 -70.631831
LeftForeArm -8.340602 -0.000000 110.472487
LeftHand -15.282460 0.000000 36.524942
LeftHandThumb1 -26.253704 0.000000 33.147579
RightShoulder -8.149330 2.590321 -7.046584
RightArm 10.615149 -27.826465 81.967190
RightForeArm -30.448069 -0.000000 32.066198
RightHand -15.055973 -0.000000 6.518790
RightHandThumb1 -24.326973 -0.000000 -32.862282
LeftUpLeg -14.683367 22.638455 -6.505770
LeftLeg 16.440866 -0.000000 -0.000000
LeftFoot -35.297323 40.071068 -22.056772
LeftToeBase 12.223378 -0.000000 -0.000000
RightUpLeg -43.125213 -60.594877 13.031470
RightLeg 90.452178 -0.000000 -0.000000
RightFoot -18.285088 -25.382604 15.451687
RightToeBase -2.794028 -0.000000 0.000000
3335
root -2.167628 31.707593 -4.544501 27.134111 -64.144129 -23.149811
Spine 5.439936 8.519122 -4.006080
Head 18.370537 35.826341 15.360599
LeftShoulder -21.673241 21.071407 11.272991
LeftArm -9.109461 -52.908670 -70.518832
LeftForeArm -8.352162 -0.000000 110.574005
LeftHand -15.220484 -0.000000 36.543462
LeftHandThumb1 -26.253704 0.000000 33.147579
RightShoulder -8.119593 2.657570 -7.084148
RightArm 10.649755 -27.959689 81.925403
RightForeArm -30.427418 -0.000000 31.947859
RightHand -15.156590 0.000000 6.483216
RightHandThumb1 -24.326973 -0.000000 -32.862282
LeftUpLeg -14.685621 22.705793 -6.573789
LeftLeg 16.475247 -0.000000 -0.000000
LeftFoot -35.172202 40.110683 -21.882358
LeftToeBase 12.013952 -0.000000 -0.000000
RightUpLeg -43.117361 -60.533117 12.949834
RightLeg 90.478676 -0.000000 -0.000000
RightFoot -18.262051 -25.468750 15.426066
RightToeBase -2.895007 -0.000000 0.000000
3336
root -2.178552 31.703613 -4.542231 26.981969 -64.053187 -23.009143
Spine 5.424537 8.416567 -4.002295
Head 18.492477 35.918932 15.330831
LeftShoulder -21.618128 21.004310 11.261906
LeftArm -9.120722 -52.846041 -70.452635
LeftForeArm -8.322910 -0.000000 110.660247
LeftHand -15.188183 -0.000000 36.411729
LeftHandThumb1 -26.253704 0.000000 33.147579
RightShoulder -8.122291 2.687819 -7.088751
RightArm 10.686171 -28.082465 81.866774
RightForeArm -30.504311 -0.000000 31.814876
RightHand -15.076561 0.000000 6.780160
RightHandThumb1 -24.326973 -0.000000 -32.862282
LeftUpLeg -14.665949 22.688249 -6.577439
LeftLeg 16.527605 -0.000000 -0.000000
LeftFoot -35.186014 40.042511 -21.854455
LeftToeBase 12.016852 -0.000000 -0.000000
RightUpLeg -43.050871 -60.604532 12.882153
RightLeg 90.473601 -0.000000 -0.000000
RightFoot -18.252238 -25.521540 15.352068
RightToeBase -2.889384 -0.000000 0.000000
3337
root -2.184307 31.699521 -4.539658 26.854525 -64.012281 -22.889484
Spine 5.421157 8.361222 -4.003910
Head 18.572662 36.025322 15.245326
LeftShoulder -21.559555 20.904886 11.269262
LeftArm -9.163508 -52.787245 -70.391523
LeftForeArm -8.357261 -0.000000 110.735010
LeftHand -15.110385 -0.000000 36.313608
LeftHandThumb1 -26.253704 0.000000 33.147579
RightShoulder -8.131685 2.696424 -7.122901
RightArm 10.766924 -28.235158 81.814005
RightForeArm -30.393651 -0.000000 31.660753
RightHand -15.098142 -0.000000 6.707003
RightHandThumb1 -24.326973 -0.000000 -32.862282
LeftUpLeg -14.659840 22.686513 -6.599395
LeftLeg 16.587088 -0.000000 -0.000000
LeftFoot -35.348470 39.866355 -22.000632
LeftToeBase 12.203487 -0.000000 -0.000000
RightUpLeg -43.025458 -60.592881 12.818690
RightLeg 90.489954 -0.000000 -0.000000
RightFoot -18.247865 -25.556905 15.362491
RightToeBase -2.918557 -0.000000 0.000000
3338
root -2.190581 31.695900 -4.536839 26.733505 -63.970916 -22.780833
Spine 5.420273 8.323637 -4.000619
Head 18.654848 36.124885 15.177583
LeftShoulder -21.526765 20.854701 11.249157
LeftArm -9.055481 -52.723216 -70.450003
LeftForeArm -8.368288 -0.000000 110.812757
LeftHand -15.068195 0.000000 36.477139
LeftHandThumb1 -26.253704 0.000000 33.147579
RightShoulder -8.140249 2.718899 -7.159889
RightArm 10.819102 -28.389865 81.759792
RightForeArm -30.315783 -0.000000 31.532824
RightHand -15.111300 -0.000000 6.760608
RightHandThumb1 -24.326973 -0.000000 -32.862282
LeftUpLeg -14.646925 22.680908 -6.615916
LeftLeg 16.637356 -0.000000 -0.000000
LeftFoot -35.230507 39.912288 -21.846053
LeftToeBase 12.047119 -0.000000 -0.000000
RightUpLeg -42.983021 -60.634452 12.756334
RightLeg 90.484560 -0.000000 -0.000000
RightFoot -18.268658 -25.537320 15.312277
RightToeBase -2.971619 -0.000000 0.000000
3339
root -2.198052 31.693513 -4.533146 26.630466 -63.927364 -22.689119
Spine 5.409356 8.293445 -3.982302
Head 18.752710 36.210158 15.089192
LeftShoulder -21.470079 20.787425 11.251732
LeftArm -8.980610 -52.740972 -70.533311
LeftForeArm -8.344327 0.000000 110.856451
LeftHand -15.031928 -0.000000 36.378970
LeftHandThumb1 -26.253704 0.000000 33.147579
RightShoulder -8.142050 2.751672 -7.198084
RightArm 10.824073 -28.510519 81.738101
RightForeArm -30.286622 0.000000 31.412664
RightHand -15.096310 -0.000000 6.792552
RightHandThumb1 -24.326973 -0.000000 -32.862282
LeftUpLeg -14.630061 22.664723 -6.625491
LeftLeg 16.679640 -0.000000 -0.000000
LeftFoot -35.240357 39.879708 -21.840802
LeftToeBase 12.006975 -0.000000 -0.000000
RightUpLeg -42.951688 -60.657869 12.713243
RightLeg 90.470514 -0.000000 -0.000000
RightFoot -18.298502 -25.510119 15.352534
RightToeBase -3.020783 -0.000000 0.000000
3340
root -2.207210 31.692269 -4.529538 26.548025 -63.866875 -22.628052
Spine 5.404153 8.242779 -3.945877
Head 18.857795 36.327918 15.022145
LeftShoulder -21.488109 20.804696 11.209258
LeftArm -8.676678 -52.771975 -70.799283
LeftForeArm -8.305981 -0.000000 110.873995
LeftHand -15.024711 -0.000000 36.247984
LeftHandThumb1 -26.253704 0.000000 33.147579
RightShoulder -8.134231 2.736103 -7.220425
RightArm 10.882365 -28.603699 81.691405
RightForeArm -30.307080 -0.000000 31.312059
RightHand -15.064070 -0.000000 6.751579
RightHandThumb1 -24.326973 -0.000000 -32.862282
LeftUpLeg -14.594276 22.623442 -6.607014
LeftLeg 16.702897 -0.000000 -0.000000
LeftFoot -35.342024 39.799023 -21.919255
LeftToeBase 12.147057 -0.000000 -0.000000
RightUpLeg -42.888967 -60.681702 12.667963
RightLeg 90.450199 -0.000000 -0.000000
RightFoot -18.303029 -25.457072 15.379688
RightToeBase -2.856407 -0.000000 0.000000
3341
root -2.216394 31.690595 -4.524565 26.448241 -63.827809 -22.537342
Spine 5.384050 8.221862 -3.935290
Head 18.951221 36.419461 14.958977
LeftShoulder -21.437500 20.685668 11.253770
LeftArm -8.679103 -52.765018 -70.846543
LeftForeArm -8.305235 -0.000000 110.886375
LeftHand -14.989000 -0.000000 36.239861
LeftHandThumb1 -26.253704 0.000000 33.147579
RightShoulder -8.126540 2.728470 -7.243510
RightArm 10.916576 -28.734566 81.643976
RightForeArm -30.299721 -0.000000 31.225959
RightHand -15.046777 0.000000 6.941645
RightHandThumb1 -24.326973 -0.000000 -32.862282
LeftUpLeg -14.560497 22.614305 -6.618618
LeftLeg 16.711352 -0.000000 -0.000000
LeftFoot -35.226673 39.845414 -21.780934
LeftToeBase 11.988116 -0.000000 -0.000000
RightUpLeg -42.841395 -60.682341 12.609244
RightLeg 90.440709 -0.000000 -0.000000
RightFoot -18.284803 -25.400920 15.430073
RightToeBase -2.993715 -0.000000 0.000000
3342
root -2.226665 31.690334 -4.519107 26.360832 -63.775982 -22.462407
Spine 5.362090 8.190877 -3.918179
Head 19.054021 36.514422 14.914957
LeftShoulder -21.431189 20.616071 11.276686
LeftArm -8.537758 -52.764506 -71.011015
LeftForeArm -8.282604 -0.000000 110.888986
LeftHand -14.973794 0.000000 36.259272
LeftHandThumb1 -26.253704 0.000000 33.147579
RightShoulder -8.124837 2.731376 -7.254533
RightArm 10.937784 -28.879868 81.596045
RightForeArm -30.319445 -0.000000 31.137131
RightHand -14.997500 -0.000000 7.046236
RightHandThumb1 -24.326973 -0.000000 -32.862282
LeftUpLeg -14.511710 22.586671 -6.612327
LeftLeg 16.704132 -0.000000 -0.000000
LeftFoot -35.296501 39.742543 -21.847881
LeftToeBase 12.102116 -0.000000 -0.000000
RightUpLeg -42.780978 -60.697687 12.561536
RightLeg 90.416711 -0.000000 -0.000000
RightFoot -18.313665 -25.326038 15.542095
RightToeBase -2.955267 -0.000000 0.000000
3343
root -2.238315 31.690315 -4.511287 26.260151 -63.730537 -22.387703
Spine 5.344517 8.177327 -3.899361
Head 19.172781 36.607657 14.877202
LeftShoulder -21.474401 20.652071 11.257488
LeftArm -8.143002 -52.776236 -71.396374
LeftForeArm -8.195393 -0.000000 110.879887
LeftHand -14.955304 -0.000000 36.260681
LeftHandThumb1 -26.253704 0.000000 33.147579
RightShoulder -8.113510 2.700297 -7.258151
RightArm 10.970793 -29.031738 81.526013
RightForeArm -30.241610 -0.000000 31.074084
RightHand -14.955132 -0.000000 7.137846
RightHandThumb1 -24.326973 -0.000000 -32.862282
LeftUpLeg -14.429876 22.566988 -6.606034
LeftLeg 16.662476 -0.000000 -0.000000
LeftFoot -35.251070 39.748800 -21.791560
LeftToeBase 12.085137 -0.000000 -0.000000
RightUpLeg -42.672764 -60.714190 12.466632
RightLeg 90.406044 -0.000000 -0.000000
RightFoot -18.297541 -25.224647 15.652420
RightToeBase -3.027839 -0.000000 0.000000
